<svg xmlns="http://www.w3.org/2000/svg" xmlns:xlink="http://www.w3.org/1999/xlink"><symbol id="landing-pages" viewBox="0 0 90 85"><path d="m190 50.589844h186c5.523438 0 10-4.480469 10-10 0-5.523438-4.476562-10-10-10h-186c-5.523438 0-10 4.476562-10 10 0 5.519531 4.476562 10 10 10zm0 0"/><path d="m129.558594 44.410156c.25.609375.5625 1.1875.921875 1.730469.359375.546875.78125 1.058594 1.238281 1.519531.460938.460938.972656.878906 1.523438 1.238282.539062.359374 1.117187.671874 1.726562.921874.601562.25 1.230469.4375 1.871094.570313.640625.128906 1.300781.199219 1.949218.199219.648438 0 1.3125-.070313 1.960938-.199219.640625-.132813 1.269531-.320313 1.871094-.570313.597656-.25 1.179687-.5625 1.71875-.921874.550781-.359376 1.058594-.777344 1.519531-1.238282.460937-.460937.882813-.972656 1.25-1.519531.359375-.542969.671875-1.121094.921875-1.730469.25-.601562.4375-1.230468.570312-1.871094.128907-.640624.1875-1.300781.1875-1.949218 0-.648438-.058593-1.308594-.1875-1.960938-.132812-.628906-.320312-1.257812-.570312-1.867187-.25-.601563-.5625-1.183594-.921875-1.722657-.367187-.550781-.789063-1.058593-1.25-1.519531-.460937-.460937-.96875-.878906-1.519531-1.25-.539063-.359375-1.121094-.671875-1.71875-.921875-.609375-.25-1.230469-.4375-1.871094-.566406-1.289062-.261719-2.621094-.261719-3.910156 0-.640625.128906-1.269532.316406-1.871094.566406-.609375.25-1.1875.5625-1.726562.921875-.550782.371094-1.0625.789063-1.523438 1.25-.457031.460938-.878906.96875-1.238281 1.519531-.359375.539063-.671875 1.121094-.921875 1.722657-.25.609375-.4375 1.238281-.566406 1.867187-.132813.652344-.191407 1.3125-.191407 1.960938 0 .648437.058594 1.308594.191407 1.949218.128906.640626.316406 1.269532.566406 1.871094zm0 0"/><path d="m43.238281 108.898438c.542969.359374 1.121094.671874 1.730469.921874.601562.25 1.230469.4375 1.871094.570313.640625.128906 1.300781.199219 1.949218.199219.648438 0 1.308594-.070313 1.960938-.199219.640625-.132813 1.257812-.320313 1.867188-.570313.601562-.25 1.183593-.5625 1.722656-.921874.550781-.359376 1.058594-.777344 1.519531-1.238282 1.871094-1.859375 2.929687-4.441406 2.929687-7.070312 0-.648438-.058593-1.308594-.1875-1.960938-.132812-.628906-.320312-1.257812-.570312-1.867187-.25-.601563-.5625-1.183594-.921875-1.722657-.367187-.550781-.777344-1.058593-1.25-1.519531-.460937-.460937-.96875-.878906-1.519531-1.25-.539063-.359375-1.121094-.671875-1.71875-.921875-.609375-.25-1.230469-.4375-1.871094-.566406-1.300781-.261719-2.621094-.261719-3.910156 0-.640625.128906-1.269532.316406-1.871094.566406-.609375.25-1.1875.5625-1.726562.921875-.550782.371094-1.0625.789063-1.523438 1.25-.457031.460938-.878906.96875-1.238281 1.519531-.359375.539063-.671875 1.121094-.921875 1.722657-.25.609375-.4375 1.238281-.566406 1.867187-.132813.652344-.203126 1.3125-.203126 1.960938 0 2.628906 1.070313 5.210937 2.933594 7.070312.457032.460938.964844.878906 1.515625 1.238282zm0 0"/><path d="m235.960938 125.761719c-.25-.601563-.5625-1.183594-.921876-1.722657-.367187-.550781-.777343-1.058593-1.25-1.519531-.460937-.460937-.96875-.878906-1.519531-1.25-.539062-.359375-1.121093-.671875-1.71875-.921875-.601562-.25-1.230469-.4375-1.871093-.566406-1.289063-.261719-2.621094-.261719-3.910157 0-.640625.128906-1.269531.316406-1.871093.566406-.597657.25-1.179688.5625-1.726563.921875-.542969.371094-1.0625.789063-1.523437 1.25-.460938.460938-.878907.96875-1.238282 1.519531-.359375.539063-.671875 1.121094-.921875 1.722657-.25.609375-.4375 1.238281-.566406 1.867187-.132813.652344-.203125 1.3125-.203125 1.960938 0 .648437.070312 1.308594.203125 1.949218.128906.640626.316406 1.269532.566406 1.871094.25.609375.5625 1.1875.921875 1.730469.359375.546875.777344 1.058594 1.238282 1.519531.460937.460938.980468.878906 1.523437 1.238282.539063.359374 1.128906.671874 1.726563.921874.601562.25 1.230468.4375 1.871093.570313.640625.128906 1.300781.199219 1.960938.199219.648437 0 1.300781-.070313 1.949219-.199219.640624-.132813 1.269531-.320313 1.871093-.570313.597657-.25 1.179688-.5625 1.71875-.921874.550781-.359376 1.058594-.777344 1.519531-1.238282.472657-.460937.882813-.972656 1.25-1.519531.359376-.542969.671876-1.121094.921876-1.730469.25-.601562.4375-1.230468.570312-1.871094.128906-.640624.199219-1.300781.199219-1.949218 0-.648438-.070313-1.308594-.199219-1.960938-.132812-.628906-.320312-1.257812-.570312-1.867187zm0 0"/><path d="m256 139.589844c2.628906 0 5.210938-1.070313 7.070312-2.929688 1.859376-1.859375 2.929688-4.441406 2.929688-7.070312 0-.648438-.070312-1.308594-.199219-1.960938-.128906-.628906-.320312-1.257812-.570312-1.867187-.25-.601563-.558594-1.183594-.921875-1.722657-.359375-.550781-.777344-1.058593-1.238282-1.519531-2.320312-2.332031-5.78125-3.390625-9.019531-2.738281-.640625.128906-1.269531.316406-1.878906.566406-.601563.25-1.183594.5625-1.722656.921875-.550781.371094-1.058594.789063-1.519531 1.25-.460938.460938-.878907.96875-1.25 1.519531-.359376.539063-.671876 1.121094-.921876 1.722657-.25.609375-.4375 1.238281-.570312 1.867187-.128906.652344-.1875 1.3125-.1875 1.960938 0 .648437.058594 1.308594.1875 1.949218.132812.640626.332031 1.269532.582031 1.871094.25.609375.558594 1.1875.917969 1.730469.363281.546875.78125 1.058594 1.242188 1.519531.460937.460938.96875.878906 1.519531 1.238282.539062.359374 1.121093.671874 1.722656.921874.609375.25 1.238281.4375 1.878906.570313.640625.128906 1.300781.199219 1.949219.199219zm0 0"/><path d="m276.039062 133.410156c.25.609375.5625 1.1875.921876 1.730469.359374.546875.777343 1.058594 1.238281 1.519531.460937.460938.980469.878906 1.53125 1.238282.539062.359374 1.117187.671874 1.71875.921874.609375.25 1.230469.4375 1.871093.570313.648438.128906 1.300782.199219 1.960938.199219.648438 0 1.296875-.070313 1.949219-.199219.640625-.132813 1.269531-.320313 1.867187-.570313.601563-.25 1.183594-.5625 1.730469-.921874.539063-.359376 1.0625-.777344 1.519531-1.238282.460938-.460937.882813-.972656 1.242188-1.519531.359375-.542969.667968-1.121094.917968-1.730469.25-.601562.441407-1.230468.570313-1.871094.132813-.640624.191406-1.300781.191406-1.949218 0-.648438-.0625-1.308594-.191406-1.960938-.128906-.628906-.320313-1.257812-.570313-1.867187-.25-.601563-.558593-1.183594-.917968-1.722657-.359375-.550781-.78125-1.058593-1.242188-1.519531-.457031-.46875-.976562-.878906-1.519531-1.25-.550781-.359375-1.128906-.671875-1.730469-.921875-.597656-.25-1.226562-.4375-1.867187-.566406-1.292969-.261719-2.621094-.261719-3.910157 0-.640624.128906-1.261718.316406-1.871093.566406-.601563.25-1.179688.5625-1.71875.921875-.550781.371094-1.070313.78125-1.53125 1.25-.460938.460938-.878907.96875-1.238281 1.519531-.359376.539063-.671876 1.121094-.921876 1.722657-.25.609375-.4375 1.238281-.570312 1.867187-.128906.652344-.199219 1.3125-.199219 1.960938 0 .648437.070313 1.308594.199219 1.949218.132812.640626.320312 1.269532.570312 1.871094zm0 0"/><path d="m370 380.660156h-110c-5.523438 0-10 4.476563-10 10 0 5.519532 4.476562 10 10 10h110c5.523438 0 10-4.480468 10-10 0-5.523437-4.476562-10-10-10zm0 0"/><path d="m370 420.660156h-110c-5.523438 0-10 4.476563-10 10 0 5.519532 4.476562 10 10 10h110c5.523438 0 10-4.480468 10-10 0-5.523437-4.476562-10-10-10zm0 0"/><path d="m175 380.660156c-16.542969 0-30 13.457032-30 30 0 16.542969 13.457031 30 30 30s30-13.457031 30-30c0-16.542968-13.457031-30-30-30zm0 40c-5.515625 0-10-4.484375-10-10s4.484375-10 10-10 10 4.484375 10 10-4.484375 10-10 10zm0 0"/><path d="m130 240.660156h40c5.523438 0 10-4.480468 10-10 0-5.523437-4.476562-10-10-10h-40c-5.523438 0-10 4.476563-10 10 0 5.519532 4.476562 10 10 10zm0 0"/><path d="m130 280.578125h80c5.523438 0 10-4.476563 10-10 0-5.519531-4.476562-10-10-10h-80c-5.523438 0-10 4.480469-10 10 0 5.523437 4.476562 10 10 10zm0 0"/><path d="m200 310.660156c0-5.523437-4.476562-10-10-10h-60c-5.523438 0-10 4.476563-10 10 0 5.519532 4.476562 10 10 10h60c5.523438 0 10-4.476562 10-10zm0 0"/><path d="m490 60.5h-64v-38c0-12.132812-9.867188-22-22-22h-296c-12.132812 0-22 9.867188-22 22v38h-64c-12.132812 0-22 9.867188-22 22v336.160156c0 12.128906 9.867188 22 22 22h64v18c0 12.128906 9.867188 22 22 22h296c12.132812 0 22-9.871094 22-22v-18h64c12.132812 0 22-9.871094 22-22v-336.160156c0-12.132812-9.867188-22-22-22zm2 22v38h-66v-9.910156h36c5.523438 0 10-4.480469 10-10 0-5.523438-4.476562-10-10-10h-36v-10.089844h64c1.085938 0 2 .914062 2 2zm-386-2h300v100.160156h-149.984375c-.007813 0-.019531 0-.027344 0h-149.988281zm300 130.636719v115.453125l-56.980469-57.011719zm-71.121094 44.296875-54.746094-54.773438h108.148438zm-13.964844 14.320312-54.914062 56.324219v-111.269531zm14.140626 14.148438 56.8125 56.839844h-112.230469zm-227.054688-263.402344h296c1.085938 0 2 .914062 2 2v38h-300v-38c0-1.085938.914062-2 2-2zm-86 60h64v40h-66v-38c0-1.085938.914062-2 2-2zm0 340.160156c-1.085938 0-2-.917968-2-2v-278.160156h66v280.160156zm384 38c0 1.082032-.914062 2-2 2h-296c-1.085938 0-2-.917968-2-2v-97.917968h21.574219c5.519531 0 10-4.480469 10-10 0-5.523438-4.480469-10-10-10h-21.574219v-140.082032h140v140.082032h-38.425781c-5.523438 0-10 4.476562-10 10 0 5.519531 4.476562 10 10 10h198.425781zm84-38h-64v-69.910156c0-.003906 0-.007812 0-.011719v-210.238281h66v278.160156c0 1.082032-.914062 2-2 2zm0 0"/><path d="m171.058594 341.339844c-.597656-.25-1.226563-.441406-1.867188-.570313-1.292968-.257812-2.621094-.257812-3.902344 0-.640624.128907-1.269531.320313-1.867187.570313-.609375.25-1.191406.558594-1.730469.921875-.550781.367187-1.058594.789062-1.519531 1.25-1.859375 1.859375-2.929687 4.429687-2.929687 7.066406 0 .652344.066406 1.3125.199218 1.953125.117188.640625.320313 1.269531.570313 1.867188.25.609374.546875 1.191406.917969 1.730468.359374.550782.78125 1.058594 1.242187 1.519532.457031.460937.96875.882812 1.519531 1.242187.539063.359375 1.117188.667969 1.730469.917969.597656.25 1.226563.441406 1.867187.570312.640626.128906 1.300782.199219 1.949219.199219.652344 0 1.3125-.070313 1.949219-.199219.640625-.128906 1.273438-.320312 1.871094-.570312.609375-.25 1.191406-.558594 1.730468-.917969.550782-.359375 1.058594-.78125 1.519532-1.242187.460937-.460938.878906-.96875 1.242187-1.519532.359375-.539062.667969-1.121094.917969-1.730468.25-.597657.449219-1.226563.582031-1.867188.128907-.640625.1875-1.300781.1875-1.953125 0-2.628906-1.070312-5.207031-2.929687-7.066406-.460938-.460938-.96875-.882813-1.519532-1.25-.539062-.363281-1.117187-.671875-1.730468-.921875zm0 0"/></symbol>

<symbol id="site-card" viewBox="0 0 80 75"><path class="st0" d="M367,389.3H47c-25.9,0-47-21.1-47-47V71c0-25.9,21.1-47,47-47h320c25.9,0,47,21.1,47,47v271.3
	C414,368.2,392.9,389.3,367,389.3z M47,38c-18.2,0-33,14.8-33,33v271.3c0,18.2,14.8,33,33,33h320c18.2,0,33-14.8,33-33V71
	c0-18.2-14.8-33-33-33H47z"/>
  <path class="st0" d="M350.8,282.4h-110c-3.9,0-7-3.1-7-7c0-3.9,3.1-7,7-7h110c3.9,0,7,3.1,7,7C357.8,279.3,354.7,282.4,350.8,282.4z
	"/>
  <path class="st0" d="M350.8,333h-110c-3.9,0-7-3.1-7-7c0-3.9,3.1-7,7-7h110c3.9,0,7,3.1,7,7C357.8,329.9,354.7,333,350.8,333z"/>
  <path class="st0" d="M350.8,181.2h-110c-3.9,0-7-3.1-7-7c0-3.9,3.1-7,7-7h110c3.9,0,7,3.1,7,7C357.8,178.1,354.7,181.2,350.8,181.2z
	"/>
  <path class="st0" d="M350.8,231.8h-110c-3.9,0-7-3.1-7-7c0-3.9,3.1-7,7-7h110c3.9,0,7,3.1,7,7C357.8,228.7,354.7,231.8,350.8,231.8z
	"/>
  <path class="st0" d="M407,117.7H7c-3.9,0-7-3.1-7-7s3.1-7,7-7h400c3.9,0,7,3.1,7,7S410.9,117.7,407,117.7z"/>
  <path class="st0" d="M100.9,92.8c-12,0-21.8-9.8-21.8-21.8s9.8-21.8,21.8-21.8S122.7,59,122.7,71S112.9,92.8,100.9,92.8z
	 M100.9,63.2c-4.3,0-7.8,3.5-7.8,7.8s3.5,7.8,7.8,7.8c4.3,0,7.8-3.5,7.8-7.8S105.2,63.2,100.9,63.2z"/>
  <path class="st0" d="M50.5,92.8c-12,0-21.8-9.8-21.8-21.8s9.8-21.8,21.8-21.8c12,0,21.8,9.8,21.8,21.8S62.5,92.8,50.5,92.8z
	 M50.5,63.2c-4.3,0-7.8,3.5-7.8,7.8s3.5,7.8,7.8,7.8c4.3,0,7.8-3.5,7.8-7.8S54.8,63.2,50.5,63.2z"/>
  <path class="st0" d="M151.3,92.8c-12,0-21.8-9.8-21.8-21.8s9.8-21.8,21.8-21.8S173.1,59,173.1,71S163.4,92.8,151.3,92.8z
	 M151.3,63.2c-4.3,0-7.8,3.5-7.8,7.8s3.5,7.8,7.8,7.8c4.3,0,7.8-3.5,7.8-7.8S155.6,63.2,151.3,63.2z"/>
  <path class="st0" d="M188,333H61c-3.9,0-7-3.1-7-7V174.2c0-3.9,3.1-7,7-7h127c3.9,0,7,3.1,7,7V326C195,329.9,191.9,333,188,333z
	 M68,319h113V181.2H68V319z"/></symbol>

<symbol id="corporate-site" viewBox="0 0 85 85"><path d="m496 256v-64.191406c0-17.800782-11.457031-33.199219-28.503906-38.3125l-51.496094-15.449219v-12.152344c14.488281-10.132812 24-26.910156 24-45.886719v-24.007812c0-30.878906-25.121094-56-56-56s-56 25.121094-56 56v24c0 18.984375 9.511719 35.761719 24 45.886719v12.152343l-45.382812 13.617188c-17.03125-15.230469-38.730469-23.65625-61.769532-23.65625-22.945312 0-43.9375 8.40625-60.160156 22.257812l-40.6875-12.210937v-12.152344c14.488281-10.132812 24-26.910156 24-45.886719v-24.007812c0-30.878906-25.121094-56-56-56s-56 25.121094-56 56v24c0 18.984375 9.511719 35.761719 24 45.886719v12.152343l-51.496094 15.449219c-17.046875 5.121094-28.503906 20.519531-28.503906 38.320313v64.191406h16v-64.191406c0-10.679688 6.871094-19.921875 17.105469-22.984375l51.511719-15.457031c4.65625 6.046874 13.664062 14.632812 27.382812 14.632812s22.726562-8.585938 27.382812-14.632812l32.808594 9.839843c-10.414062 13.097657-17.351562 29.039063-19.457031 46.480469-10.214844-10.855469-24.679687-17.6875-40.734375-17.6875-30.878906 0-56 25.121094-56 56v24c0 18.984375 9.511719 35.761719 24 45.886719v12.152343l-51.496094 15.449219c-17.046875 5.121094-28.503906 20.519531-28.503906 38.320313v72.191406h96c4.40625 0 8 3.59375 8 8v32h288v-32c0-4.40625 3.59375-8 8-8h96v-72.191406c0-17.800782-11.457031-33.199219-28.503906-38.3125l-51.496094-15.449219v-12.152344c14.488281-10.132812 24-26.910156 24-45.886719v-24c0-30.878906-25.121094-56-56-56-15.664062 0-29.824219 6.480469-40 16.878907v-7.582031c0-15.800782-8.585938-30.023438-21.984375-37.542969l34.601563-10.386719c4.65625 6.039062 13.664062 14.625 27.382812 14.625s22.726562-8.585938 27.382812-14.632812l51.519532 15.457031c10.226562 3.0625 17.097656 12.304687 17.097656 22.984375v64.191406zm-384-240c22.054688 0 40 17.945312 40 40h-36.6875c-5.082031 0-10.066406-2.0625-13.65625-5.65625l-5.65625-5.65625-5.65625 5.65625c-3.589844 3.59375-8.574219 5.65625-13.65625 5.65625h-4.6875c0-22.054688 17.945312-40 40-40zm-40 64v-8h4.6875c6.96875 0 13.625-2 19.3125-5.734375 5.6875 3.734375 12.34375 5.734375 19.3125 5.734375h36.6875v8c0 22.054688-17.945312 40-40 40s-40-17.945312-40-40zm40 72c-8.503906 0-14.015625-7.144531-16-10.199219v-8.152343c5.070312 1.511718 10.441406 2.351562 16 2.351562s10.929688-.839844 16-2.359375v8.152344c-1.984375 3.070312-7.496094 10.207031-16 10.207031zm219.902344 140.414062c4.074218 10.347657 11.105468 19.195313 20.097656 25.480469v12.152344l-51.488281 15.449219c-1.695313.503906-3.34375 1.160156-4.953125 1.886718l-7.558594-1.742187v-15.761719c8.550781-6.871094 15.289062-15.894531 19.425781-26.238281 9.214844-.808594 17.855469-4.730469 24.476563-11.226563zm-83.902344 51.585938c8.488281 0 16.585938-1.695312 24-4.710938v8.710938l-24 18-24-18v-8.710938c7.414062 3.015626 15.511719 4.710938 24 4.710938zm-33.824219 16.632812 19.503907 14.632813-20.0625 12.039063-5.074219-25.367188zm24.984375 63.367188h17.679688l6.222656 56h-30.125zm19.070313-16h-20.46875l-4.59375-13.777344 14.832031-8.894531 14.824219 8.894531zm4.089843-32.734375 19.503907-14.632813 5.632812 1.296876-5.074219 25.367187zm59.441407-95.121094c-2.769531 3.039063-6.289063 5.167969-10.105469 6.464844.222656-2.175781.34375-4.378906.34375-6.609375v-38.28125c8.609375 3.265625 15.015625 10.839844 15.878906 19.890625.65625 6.886719-1.511718 13.460937-6.117187 18.535156zm-25.761719-.144531c0 26.472656-21.527344 48-48 48s-48-21.527344-48-48v-40h27.160156c17.433594 0 34.398438-4.351562 49.566406-12.664062l6.328126 12.664062h12.945312zm-111.65625 6.609375c-3.816406-1.296875-7.335938-3.425781-10.105469-6.464844-4.605469-5.066406-6.773437-11.648437-6.117187-18.527343.863281-9.050782 7.269531-16.632813 15.878906-19.890626v38.273438c0 2.230469.121094 4.433594.34375 6.609375zm4.230469 17.03125c4.128906 10.34375 10.867187 19.367187 19.425781 26.238281v15.761719l-7.558594 1.742187c-1.617187-.726562-3.257812-1.375-4.945312-1.886718l-51.496094-15.449219v-12.152344c8.984375-6.285156 16.023438-15.132812 20.097656-25.480469 6.621094 6.496094 15.261719 10.417969 24.476563 11.226563zm-76.574219-95.640625c22.054688 0 40 17.945312 40 40h-4.6875c-5.082031 0-10.066406-2.0625-13.65625-5.65625l-5.65625-5.65625-5.65625 5.65625c-3.589844 3.59375-8.574219 5.65625-13.65625 5.65625h-36.6875c0-22.054688 17.945312-40 40-40zm-40 64v-8h36.6875c6.96875 0 13.625-2 19.3125-5.734375 5.6875 3.734375 12.34375 5.734375 19.3125 5.734375h4.6875v8c0 22.054688-17.945312 40-40 40s-40-17.945312-40-40zm40 56c5.558594 0 10.929688-.839844 16-2.359375v8.152344c-1.984375 3.070312-7.496094 10.207031-16 10.207031s-14.015625-7.144531-16-10.199219v-8.152343c5.070312 1.511718 10.441406 2.351562 16 2.351562zm-16 112h-32v-56h-16v56h-32v-56.191406c0-10.679688 6.871094-19.921875 17.105469-22.984375l51.511719-15.457031c4.65625 6.046874 13.664062 14.632812 27.382812 14.632812s22.726562-8.585938 27.382812-14.632812l30.335938 9.105468-22.3125 5.144532c-25.558594 5.902343-43.40625 28.34375-43.40625 54.566406v9.816406h16v-9.816406c0-18.734375 12.753906-34.757813 31.007812-38.976563l41.9375-9.679687 9.429688 47.167968 16.738281-10.039062 4.734375 14.207031-7.007812 63.136719h-40.839844v-64h-16v64h-40v-16c0-13.230469-10.769531-24-24-24zm366.894531-79.175781c10.234375 3.0625 17.105469 12.304687 17.105469 22.984375v56.191406h-32v-56h-16v56h-32c-13.230469 0-24 10.769531-24 24v16h-40v-64h-16v64h-40.839844l-7.015625-63.136719 4.734375-14.207031 16.738282 10.039062 9.429687-47.167968 41.945313 9.679687c18.253906 4.21875 31.007812 20.242188 31.007812 38.976563v9.816406h16v-9.816406c0-26.222656-17.847656-48.664063-43.40625-54.566406l-22.3125-5.144532 30.335938-9.105468c4.65625 6.046874 13.664062 14.632812 27.382812 14.632812s22.726562-8.585938 27.382812-14.632812zm-62.894531-27.023438c-1.984375 3.0625-7.496094 10.199219-16 10.199219-8.519531 0-14.039062-7.167969-16-10.199219v-8.160156c5.070312 1.519531 10.441406 2.359375 16 2.359375s10.929688-.839844 16-2.359375zm-16-21.800781c-22.054688 0-40-17.945312-40-40v-8h4.6875c6.96875 0 13.625-2 19.3125-5.734375 5.6875 3.734375 12.34375 5.734375 19.3125 5.734375h36.6875v8c0 22.054688-17.945312 40-40 40zm0-104c22.054688 0 40 17.945312 40 40h-36.6875c-5.082031 0-10.066406-2.0625-13.65625-5.65625l-5.65625-5.65625-5.65625 5.65625c-3.589844 3.59375-8.574219 5.65625-13.65625 5.65625h-4.6875c0-22.054688 17.945312-40 40-40zm-56 24.679688c-7.078125-5.359376-15.871094-8.679688-25.375-8.679688h-9.679688l-9.839843-19.679688-7.539063 5.023438c-14.390625 9.59375-31.125 14.65625-48.40625 14.65625h-33.785156c-9.503906 0-18.296875 3.320312-25.375 8.679688v-11.832032c0-42.367187 34.480469-76.847656 76.847656-76.847656 20.527344 0 39.832032 7.992188 54.34375 22.503906l8.488282 8.488282 1.792968.601562c11.078125 3.695312 18.527344 14.023438 18.527344 25.703125zm56-216.679688c22.054688 0 40 17.945312 40 40h-4.6875c-5.082031 0-10.066406-2.0625-13.65625-5.65625l-5.65625-5.65625-5.65625 5.65625c-3.589844 3.59375-8.574219 5.65625-13.65625 5.65625h-36.6875c0-22.054688 17.945312-40 40-40zm-40 64v-8h36.6875c6.96875 0 13.625-2 19.3125-5.734375 5.6875 3.734375 12.34375 5.734375 19.3125 5.734375h4.6875v8c0 22.054688-17.945312 40-40 40s-40-17.945312-40-40zm40 72c-8.519531 0-14.039062-7.167969-16-10.199219v-8.160156c5.070312 1.519531 10.441406 2.359375 16 2.359375s10.929688-.839844 16-2.359375v8.152344c-1.984375 3.070312-7.496094 10.207031-16 10.207031zm0 0"/><path d="m184 0h16v16h-16zm0 0"/><path d="m184 32h16v88h-16zm0 0"/><path d="m296 0h16v16h-16zm0 0"/><path d="m296 32h16v88h-16zm0 0"/><path d="m216 32h16v56h-16zm0 0"/><path d="m216 104h16v16h-16zm0 0"/><path d="m264 32h16v56h-16zm0 0"/><path d="m264 104h16v16h-16zm0 0"/></symbol>

<symbol id="megaphone" viewBox="0 0 90 90"><path id="XMLID_1773_" d="M446.215,270.157L241.861,65.803c-13.255-13.255-34.824-13.256-48.083,0.001    c-9.722,9.722-12.304,23.914-7.766,36.02l-41.906,77.821c-2.618,4.862-0.799,10.928,4.063,13.546    c4.864,2.62,10.927,0.799,13.546-4.063l37.557-69.746l193.345,193.345L139.854,448.164l-76.457-76.456l60.518-112.385    c2.618-4.862,0.799-10.928-4.063-13.546c-4.865-2.62-10.928-0.8-13.546,4.063L42.412,368.497L13.38,397.528    c-17.787,17.788-17.786,46.73,0,64.518l36.593,36.593c8.894,8.894,20.576,13.34,32.258,13.34c11.683,0,23.365-4.446,32.26-13.34    l23.776-23.777l24.994,24.994c7.463,7.462,17.479,11.364,27.589,11.364c6.464,0,12.967-1.596,18.861-4.876l104.897-58.372    c9.291-5.17,15.463-14.175,16.934-24.705c1.471-10.529-1.997-20.879-9.515-28.396l-14.083-14.083l102.24-54.784    c3.856,1.447,7.922,2.181,11.99,2.181c8.706,0,17.413-3.314,24.041-9.942c6.422-6.422,9.958-14.961,9.958-24.042    C456.173,285.117,452.637,276.579,446.215,270.157z M100.348,484.496c-9.989,9.989-26.243,9.988-36.232,0l-36.593-36.593    c-9.989-9.989-9.989-26.243,0-36.232l23.776-23.776l23.511,23.51l49.314,49.315L100.348,484.496z M307.885,409.013    c3.041,3.041,4.443,7.229,3.849,11.487c-0.595,4.261-3.092,7.903-6.851,9.995l-104.897,58.372    c-7.351,4.092-16.638,2.793-22.583-3.154l-22.775-22.775l134.899-72.283L307.885,409.013z M432.073,304.099    c-5.457,5.46-14.341,5.458-19.798,0L207.92,99.744c-5.459-5.458-5.458-14.34-0.001-19.799c2.73-2.729,6.314-4.094,9.9-4.094    c3.585,0,7.171,1.365,9.899,4.094L432.074,284.3c2.644,2.645,4.1,6.159,4.1,9.899    C436.173,297.938,434.717,301.454,432.073,304.099z"/>
  <path id="XMLID_1780_" d="M432.781,89.179c2.56,0,5.118-0.977,7.071-2.929l69.179-69.179c3.905-3.905,3.905-10.237,0-14.143    c-3.906-3.904-10.236-3.904-14.143,0l-69.179,69.179c-3.905,3.905-3.905,10.237,0,14.143    C427.663,88.202,430.221,89.179,432.781,89.179z"/>
  <path id="XMLID_1781_" d="M404.499,117.46c2.63,0,5.21-1.07,7.069-2.93c1.86-1.86,2.931-4.44,2.931-7.07s-1.07-5.21-2.931-7.07    c-1.859-1.859-4.439-2.93-7.069-2.93s-5.21,1.07-7.08,2.93c-1.86,1.86-2.92,4.44-2.92,7.07s1.06,5.21,2.92,7.07    C399.289,116.39,401.859,117.46,404.499,117.46z"/>
  <path id="XMLID_1782_" d="M348.459,102.5c5.522,0,10-4.478,10-10V10c0-5.522-4.478-10-10-10s-10,4.478-10,10v82.5    C338.459,98.022,342.937,102.5,348.459,102.5z"/>
  <path id="XMLID_1783_" d="M501.959,153.5h-82.5c-5.522,0-10,4.478-10,10s4.478,10,10,10h82.5c5.522,0,10-4.478,10-10    S507.482,153.5,501.959,153.5z"/>
  <path id="XMLID_1784_" d="M460.709,412c-5.522,0-10,4.478-10,10v14.414c0,5.522,4.478,10,10,10s10-4.478,10-10V422    C470.709,416.478,466.232,412,460.709,412z"/>
  <path id="XMLID_1788_" d="M460.709,477.586c-5.522,0-10,4.478-10,10V502c0,5.522,4.478,10,10,10s10-4.478,10-10v-14.414    C470.709,482.063,466.232,477.586,460.709,477.586z"/>
  <path id="XMLID_1789_" d="M500.709,452h-14.414c-5.522,0-10,4.478-10,10s4.478,10,10,10h14.414c5.522,0,10-4.478,10-10    S506.232,452,500.709,452z"/>
  <path id="XMLID_1790_" d="M435.123,452h-14.414c-5.522,0-10,4.478-10,10s4.478,10,10,10h14.414c5.522,0,10-4.478,10-10    S440.646,452,435.123,452z"/>
  <path id="XMLID_1791_" d="M63.959,48.414c5.522,0,10-4.478,10-10V24c0-5.522-4.478-10-10-10s-10,4.478-10,10v14.414    C53.959,43.937,58.437,48.414,63.959,48.414z"/>
  <path id="XMLID_1792_" d="M63.959,114c5.522,0,10-4.478,10-10V89.586c0-5.522-4.478-10-10-10s-10,4.478-10,10V104    C53.959,109.522,58.437,114,63.959,114z"/>
  <path id="XMLID_1793_" d="M89.544,74h14.415c5.522,0,10-4.478,10-10s-4.478-10-10-10H89.544c-5.522,0-10,4.478-10,10    S84.022,74,89.544,74z"/>
  <path id="XMLID_1794_" d="M23.959,74h14.414c5.522,0,10-4.478,10-10s-4.478-10-10-10H23.959c-5.522,0-10,4.478-10,10    S18.437,74,23.959,74z"/>
  <path id="XMLID_1798_" d="M142.388,308.281c0.596,3.76,3.273,6.854,6.908,7.984l36.104,11.223l11.224,36.104    c1.13,3.635,4.225,6.313,7.984,6.908c0.523,0.083,1.047,0.123,1.566,0.123c3.213,0,6.271-1.551,8.163-4.227l21.829-30.868    l37.805,0.483c3.813,0.078,7.309-2.067,9.038-5.459c1.728-3.392,1.381-7.47-0.896-10.521l-22.612-30.302l12.143-35.805    c1.222-3.605,0.292-7.592-2.399-10.283c-2.693-2.691-6.679-3.621-10.283-2.399l-35.805,12.143l-30.301-22.612    c-3.05-2.277-7.129-2.622-10.521-0.896c-3.392,1.729-5.508,5.231-5.459,9.038l0.482,37.805l-30.869,21.83    C143.383,300.75,141.792,304.521,142.388,308.281z M193.201,290.016c2.687-1.9,4.267-5.002,4.225-8.293l-0.291-22.801    l18.275,13.638c2.638,1.969,6.074,2.513,9.191,1.456l21.596-7.323l-7.323,21.596c-1.057,3.116-0.512,6.554,1.456,9.191    l13.638,18.275l-22.801-0.291c-0.043-0.001-0.086-0.001-0.128-0.001c-3.243,0-6.289,1.574-8.165,4.227l-13.166,18.617    l-6.77-21.775c-0.977-3.143-3.438-5.604-6.58-6.58l-21.775-6.77L193.201,290.016z"/>
  <path id="XMLID_1799_" d="M133.929,229.63c2.63,0,5.21-1.061,7.07-2.93c1.859-1.86,2.93-4.431,2.93-7.07    c0-2.63-1.07-5.2-2.93-7.07c-1.86-1.859-4.44-2.93-7.07-2.93s-5.21,1.07-7.07,2.93c-1.859,1.86-2.93,4.44-2.93,7.07    c0,2.64,1.07,5.21,2.93,7.07C128.719,228.56,131.299,229.63,133.929,229.63z"/></symbol>

<symbol id="e-shop" viewBox="0 0 85 60"><path d="m413.917,96.775h-360.622c-6.369,0-11.551,5.181-11.551,11.55v213.182c0,6.369 5.182,11.55 11.551,11.55h360.622c6.368,0 11.55-5.181 11.55-11.55v-213.181c-5.68434e-14-6.369-5.182-11.551-11.55-11.551zm1.55,224.732c0,0.855-0.695,1.55-1.55,1.55h-360.622c-0.855,0-1.551-0.696-1.551-1.55v-213.181c0-0.855 0.695-1.55 1.551-1.55h360.622c0.854,0 1.55,0.696 1.55,1.55v213.181z"/>
  <path d="m459.711,340.558h-11.744v-237.715c0-15.752-12.815-28.568-28.568-28.568h-371.586c-15.753,0-28.568,12.815-28.568,28.568v237.714h-11.745c-4.143,0-7.5,3.358-7.5,7.5v20.605c0,13.384 10.889,24.272 24.272,24.272h418.666c13.384,0 24.272-10.889 24.272-24.272v-20.605c0.001-4.141-3.356-7.499-7.499-7.499zm-425.467-237.715c-2.84217e-14-7.481 6.087-13.568 13.568-13.568h371.586c7.481,0 13.568,6.086 13.568,13.568v237.714h-398.722v-237.714zm177.361,252.715h44v3.922c0,1.755-1.428,3.184-3.184,3.184h-37.633c-1.756,0-3.184-1.428-3.184-3.184v-3.922zm240.607,13.105c0,5.113-4.159,9.272-9.272,9.272h-418.667c-5.113,0-9.272-4.16-9.272-9.272v-13.105h11.744 174.861v3.922c0,7.27 5.914,13.184 13.184,13.184h37.633c7.27,0 13.184-5.914 13.184-13.184v-3.922h174.861 11.744v13.105z"/></symbol>

<symbol id="service" viewBox="0 0 85 85"><path class="st0" d="M22.7,0H3.3C1.5,0,0,1.5,0,3.3v19.3C0,24.5,1.5,26,3.3,26h19.3c1.8,0,3.3-1.5,3.3-3.3V3.3
		C26,1.5,24.5,0,22.7,0z M24,22.7c0,0.7-0.6,1.3-1.3,1.3H3.3C2.6,24,2,23.4,2,22.7V3.3C2,2.6,2.6,2,3.3,2h19.3C23.4,2,24,2.6,24,3.3
		V22.7z"/>
  <path class="st0" d="M52.7,0H33.3C31.5,0,30,1.5,30,3.3v19.3c0,1.8,1.5,3.3,3.3,3.3h19.3c1.8,0,3.3-1.5,3.3-3.3V3.3
		C56,1.5,54.5,0,52.7,0z M54,22.7c0,0.7-0.6,1.3-1.3,1.3H33.3c-0.7,0-1.3-0.6-1.3-1.3V3.3C32,2.6,32.6,2,33.3,2h19.3
		C53.4,2,54,2.6,54,3.3V22.7z"/>
  <path class="st0" d="M22.7,30H3.3C1.5,30,0,31.5,0,33.3v19.3C0,54.5,1.5,56,3.3,56h19.3c1.8,0,3.3-1.5,3.3-3.3V33.3
		C26,31.5,24.5,30,22.7,30z M24,52.7c0,0.7-0.6,1.3-1.3,1.3H3.3C2.6,54,2,53.4,2,52.7V33.3C2,32.6,2.6,32,3.3,32h19.3
		c0.7,0,1.3,0.6,1.3,1.3V52.7z"/>
  <path class="st0" d="M55,42H44V31c0-0.6-0.4-1-1-1s-1,0.4-1,1v11H31c-0.6,0-1,0.4-1,1s0.4,1,1,1h11v11c0,0.6,0.4,1,1,1s1-0.4,1-1
		V44h11c0.6,0,1-0.4,1-1S55.6,42,55,42z"/></symbol>
</svg>